<svg width="40" height="40" viewBox="0 0 40 40" fill="none" xmlns="http://www.w3.org/2000/svg">
<g clip-path="url(#clip0_55_50)">
<path d="M32.5 0H7.5C3.35692 0 0 3.35692 0 7.5V32.5C0 36.6431 3.35692 40 7.5 40H32.5C36.6431 40 40 36.6431 40 32.5V7.5C40 3.35692 36.6431 0 32.5 0ZM31.4831 21.5415H27.74V35.3938H21.4892V21.5415H19.0646V16.8754H21.4892V13.9031C21.4908 10.0062 23.1092 7.69231 27.7015 7.69231H32.3554V12.3415H29.6523C27.8646 12.3415 27.7477 13.0077 27.7477 14.2538L27.74 16.8738H31.9923L31.4831 21.5415Z" fill="white"/>
</g>
<defs>
<clipPath id="clip0_55_50">
<rect width="40" height="40" fill="white"/>
</clipPath>
</defs>
</svg>
