<svg width="36" height="36" viewBox="0 0 36 36" fill="none" xmlns="http://www.w3.org/2000/svg">
<g clip-path="url(#clip0_42_46473)">
<path d="M32.9508 7.98484L32.4122 8.15558L29.544 8.41112L28.7338 9.70485L28.146 9.51807L25.8633 7.46001L25.5321 6.38973L25.0887 5.2484L23.654 3.96154L21.9615 3.63037L21.9225 4.40501L23.5806 6.02304L24.3919 6.97873L23.4798 7.45543L22.7372 7.23656L21.6246 6.77246L21.6624 5.87521L20.2025 5.27476L19.7178 7.38438L18.2464 7.71784L18.3919 8.89469L20.3091 9.26368L20.6402 7.38324L22.2227 7.617L22.9584 8.04786H24.1387L24.9466 9.66589L27.0883 11.8385L26.9313 12.6831L25.2044 12.4631L22.2204 13.9699L20.0719 16.5471L19.7922 17.6884H19.0211L17.5841 17.0261L16.1884 17.6884L16.5356 19.1609L17.1429 18.4608L18.2109 18.4275L18.1364 19.7499L19.0211 20.0089L19.9046 21.0013L21.3473 20.5956L22.9951 20.8557L24.9088 21.3702L25.8644 21.4825L27.4848 23.3217L30.612 25.1609L28.5894 29.0249L26.4546 30.0173L25.6444 32.2255L22.555 34.2881L22.2262 35.4776C30.1238 33.5754 35.9989 26.481 35.9989 17.999C35.9966 14.2942 34.8736 10.8462 32.9508 7.98484Z" fill="#1E1E1B"/>
<path d="M20.0707 27.4069L18.7597 24.9764L19.9629 22.4691L18.7597 22.1093L17.4087 20.7526L14.4156 20.0811L13.4221 18.0024V19.2365H12.9843L10.4049 15.7392V12.8664L8.51413 9.79191L5.51183 10.3271H3.4893L2.47173 9.66013L3.77005 8.6311L2.47517 8.93019C0.914433 11.5956 0.00457764 14.6884 0.00457764 18.0012C0.00457764 27.9397 8.06149 36.0001 18.0011 36.0001C18.7666 36.0001 19.5172 35.9325 20.2597 35.8431L20.0718 33.6624C20.0718 33.6624 20.898 30.4241 20.898 30.3141C20.8969 30.2029 20.0707 27.4069 20.0707 27.4069Z" fill="#1E1E1B"/>
<path d="M6.69216 5.80405L9.88925 5.35829L11.3629 4.55042L13.021 5.02827L15.6704 4.88159L16.5779 3.45493L17.9015 3.67265L21.1158 3.37128L22.0016 2.39496L23.2506 1.56073L25.0176 1.82659L25.6616 1.72918C23.3342 0.63369 20.7445 0 18 0C12.4137 0 7.41867 2.54622 4.12073 6.54431H4.12989L6.69216 5.80405ZM18.7609 1.78992L20.599 0.778075L21.7792 1.45989L20.0707 2.7605L18.4389 2.92437L17.7044 2.44767L18.7609 1.78992ZM13.3167 1.93774L14.128 2.27578L15.1902 1.93774L15.7689 2.94041L13.3167 3.58442L12.1375 2.89458C12.1364 2.89458 13.2903 2.15202 13.3167 1.93774Z" fill="#1E1E1B"/>
</g>
<defs>
<clipPath id="clip0_42_46473">
<rect width="36" height="36" fill="white"/>
</clipPath>
</defs>
</svg>
