<svg width="40" height="40" viewBox="0 0 40 40" fill="none" xmlns="http://www.w3.org/2000/svg">
<g clip-path="url(#clip0_54_46)">
<path d="M31.63 7.3999C31.4322 7.3999 31.2389 7.45855 31.0744 7.56843C30.91 7.67831 30.7818 7.83449 30.7061 8.01722C30.6304 8.19995 30.6106 8.40101 30.6492 8.59499C30.6878 8.78897 30.783 8.96716 30.9229 9.10701C31.0628 9.24686 31.2409 9.3421 31.4349 9.38069C31.6289 9.41927 31.83 9.39947 32.0127 9.32378C32.1954 9.24809 32.3516 9.11992 32.4615 8.95547C32.5714 8.79102 32.63 8.59768 32.63 8.3999C32.63 8.13469 32.5247 7.88033 32.3371 7.6928C32.1496 7.50526 31.8952 7.3999 31.63 7.3999Z" fill="white"/>
<path d="M25.05 12.8602C16.63 7.8602 7.83999 16.6302 12.86 25.0502C13.3854 25.9164 14.1217 26.6354 15 27.1402C23.42 32.1402 32.21 23.3702 27.19 14.9502C26.6645 14.084 25.9283 13.365 25.05 12.8602Z" fill="white"/>
<path d="M31.5 5.89677e-06H8.50001C7.3834 -0.00131008 6.2775 0.217651 5.24564 0.64435C4.21378 1.07105 3.27622 1.6971 2.48666 2.48666C1.6971 3.27622 1.07105 4.21378 0.64435 5.24564C0.217651 6.2775 -0.00131008 7.3834 5.89677e-06 8.50001V31.5C-0.00131008 32.6166 0.217651 33.7225 0.64435 34.7544C1.07105 35.7862 1.6971 36.7238 2.48666 37.5134C3.27622 38.3029 4.21378 38.929 5.24564 39.3557C6.2775 39.7824 7.3834 40.0013 8.50001 40H31.5C32.6166 40.0013 33.7225 39.7824 34.7544 39.3557C35.7862 38.929 36.7238 38.3029 37.5134 37.5134C38.3029 36.7238 38.929 35.7862 39.3557 34.7544C39.7824 33.7225 40.0013 32.6166 40 31.5V8.50001C40.0013 7.3834 39.7824 6.2775 39.3557 5.24564C38.929 4.21378 38.3029 3.27622 37.5134 2.48666C36.7238 1.6971 35.7862 1.07105 34.7544 0.64435C33.7225 0.217651 32.6166 -0.00131008 31.5 5.89677e-06ZM26 29.36C15.55 35.1 4.90001 24.45 10.64 14C11.4248 12.5886 12.5886 11.4248 14 10.64C24.45 4.90001 35.1 15.55 29.36 26C28.5752 27.4114 27.4114 28.5752 26 29.36ZM33.9 10.94C33.2423 11.486 32.4044 11.7668 31.5505 11.7272C30.6966 11.6877 29.8882 11.3307 29.2837 10.7263C28.6793 10.1218 28.3223 9.31345 28.2828 8.45954C28.2432 7.60563 28.524 6.76772 29.07 6.11001C29.1578 5.99224 29.2622 5.88782 29.38 5.80001C30.0377 5.25399 30.8756 4.97325 31.7295 5.01279C32.5834 5.05232 33.3918 5.40929 33.9963 6.01374C34.6007 6.61819 34.9577 7.42657 34.9972 8.28048C35.0368 9.13439 34.756 9.97229 34.21 10.63C34.1191 10.7485 34.0113 10.853 33.89 10.94H33.9Z" fill="white"/>
</g>
<defs>
<clipPath id="clip0_54_46">
<rect width="40" height="40" fill="white"/>
</clipPath>
</defs>
</svg>
