<svg width="120" height="60" viewBox="0 0 120 60" fill="none" xmlns="http://www.w3.org/2000/svg">
<g clip-path="url(#clip0_161_8346)">
<path d="M51.1364 34.6298C53.6364 37.1077 56.136 39.5864 58.6351 42.0659V48.9466L49.3376 58.1619L45.8666 54.7215L55.0401 45.5063L47.6021 38.1341L25.536 60.005C17.0236 51.5679 8.51118 43.1308 -0.0012207 34.6937L12.7674 22.0381L16.2385 25.4784L7.0649 34.6937L14.5029 42.0659L23.8004 32.9735L27.2715 36.4139L18.2219 45.752L25.6599 53.0014L44.131 34.5708L34.8335 25.4784L38.3318 22.0381L47.6021 31.2533C51.2806 27.6074 54.9583 23.9622 58.6351 20.3179V27.1986L51.1364 34.6298Z" fill="#9F0004"/>
<path d="M68.8636 34.6298C66.3636 37.1077 63.864 39.5864 61.3649 42.0659V48.9466L70.6624 58.1619L74.1335 54.7215L64.9599 45.5063L72.3979 38.1341L94.464 60.005L120.001 34.6937L107.233 22.0381L103.762 25.4784L112.935 34.6937L105.497 42.0659L96.1996 32.9735L92.7285 36.4139L101.778 45.752L94.3401 53.0014L75.869 34.5708L85.1665 25.4784L81.6669 22.0381L72.3979 31.2533L61.3649 20.3179V27.1986L68.8636 34.6298Z" fill="#1E1B1E"/>
<path d="M21.1575 13.8008C21.2401 14.4324 21.3575 14.8149 21.5095 14.9484C21.6616 15.082 22.0769 15.1487 22.7554 15.1487V15.6549H17.1695V15.1487C17.748 15.1487 18.1347 15.1078 18.3298 15.0258C18.5219 14.9411 18.6174 14.731 18.6174 14.3931C18.6208 14.1952 18.6066 13.9975 18.5752 13.8021L17.2711 3.92698C16.9397 4.28099 16.6445 4.66663 16.3897 5.07827C16.0263 5.67631 15.7037 6.29778 15.424 6.93852C15.0711 7.71998 14.7881 8.70622 14.5748 9.89724C14.355 11.1852 14.2488 12.4897 14.2575 13.7959C14.2575 14.4164 14.3343 14.7973 14.4918 14.9374C14.6492 15.0774 15.0732 15.1487 15.7686 15.1487V15.6549H10.1666V15.1487C10.8633 15.1487 11.286 15.0783 11.4347 14.9374C11.5835 14.7965 11.6579 14.4156 11.6579 13.7947C11.6579 12.1859 11.7711 10.9412 11.9976 10.0607C12.224 9.18009 12.7054 8.23153 13.4418 7.21498C14.1781 6.19926 15.4178 4.81697 17.1608 3.06811L17.0728 2.39724C16.9901 1.7493 16.8728 1.35858 16.7207 1.22506C16.5719 1.09113 16.1628 1.02478 15.4959 1.02478V0.518555H21.0744V1.02478C20.4637 1.02478 20.0695 1.07393 19.8918 1.17222C19.7141 1.27052 19.6252 1.51626 19.6252 1.90945C19.6233 2.07356 19.6308 2.23765 19.6476 2.40093L20.3715 7.87111C21.1699 6.23284 22.4459 4.72276 24.1996 3.34088L24.0757 2.39847C23.993 1.76446 23.8757 1.37742 23.7236 1.23735C23.5715 1.09727 23.1583 1.02683 22.4839 1.02601V0.518555H28.0785V1.02478C27.4678 1.02478 27.0736 1.07393 26.8959 1.17222C26.7182 1.27052 26.6294 1.51626 26.6294 1.90945C26.6278 2.07352 26.6348 2.23757 26.6504 2.40093L28.1628 13.8021C28.2455 14.4336 28.3591 14.8161 28.5038 14.9497C28.6451 15.0836 29.0579 15.1499 29.7434 15.1499V15.6562H24.1649V15.1499C24.7616 15.1499 25.1554 15.109 25.3463 15.0271C25.5372 14.9452 25.6331 14.7338 25.6339 14.3931C25.6372 14.1952 25.6231 13.9975 25.5918 13.8021L24.3149 4.19852C22.5339 5.75487 21.3298 7.80968 20.7025 10.3629L21.1575 13.8008Z" fill="#1E1B1E"/>
<path d="M38.4112 16.606C38.2872 17.8347 38.2215 17.7462 38.1818 18.594C38.0678 21.006 38.6182 22.0528 38.9256 22.5259C39.0381 22.6979 39.1623 22.8621 39.2975 23.0173C38.9764 23.123 38.6442 23.2447 38.3058 23.386C37.0518 23.91 35.8823 24.6138 34.8347 25.4747C34.783 25.3984 34.7413 25.3158 34.7107 25.229C34.6351 24.989 34.6351 24.7318 34.7107 24.4918C34.9388 23.6649 36.874 18.8398 37.0661 18.3483C37.4093 17.4753 37.6744 16.574 37.8583 15.655H35.6269L31.7231 5.3744C31.6858 5.27257 31.6645 5.16565 31.6599 5.0574C31.6599 4.90258 31.7727 4.82517 32.0008 4.82517H33.1934C33.3759 4.81058 33.5592 4.84318 33.7252 4.91978C33.853 5.02623 33.9429 5.17051 33.9818 5.3314L37.624 14.9804H37.8793C37.9496 12.4468 38.1562 10.3355 38.4992 8.64644C38.8421 6.95738 39.1831 5.8454 39.5219 5.31051C39.7062 5.00087 40.388 4.8391 41.5673 4.82517C41.7508 4.82517 41.8438 4.90995 41.8438 5.07828C41.8297 5.53779 41.7883 5.99607 41.7198 6.45074C41.6372 7.08394 41.5376 7.40053 41.4211 7.40053H40.7616C40.3202 7.40053 40.0149 7.4464 39.8454 7.53815C39.676 7.62989 39.5269 7.81624 39.3979 8.09721C39.2298 8.48542 39.0978 8.88806 39.0037 9.30011C38.869 9.83582 38.7376 10.7578 38.6095 12.0659C38.3578 14.5798 38.5835 14.8477 38.4112 16.606Z" fill="#9F0004"/>
<path d="M56.2624 15.6549H50.6405V15.1487C51.3355 15.1487 51.7616 15.0783 51.9186 14.9374C52.0756 14.7965 52.1537 14.4164 52.1529 13.7971V2.37635C52.1529 1.762 52.0748 1.37619 51.9186 1.23612C51.7624 1.09605 51.3335 1.02478 50.6405 1.02478V0.518555H62.612V1.02478C61.9153 1.02478 61.4893 1.09523 61.3339 1.23612C61.1777 1.37619 61.0996 1.75709 61.0996 2.37635V5.9015C59.5376 5.9015 58.2773 6.03543 57.3186 6.30329C56.3588 6.57126 55.4925 7.09732 54.8157 7.82319C55.6706 7.82439 56.5208 7.94855 57.3397 8.1918C58.0009 8.38191 58.6217 8.68959 59.1719 9.09981C59.6602 9.48614 60.0843 9.94593 60.4289 10.4624C60.7682 10.9537 61.0435 11.4854 61.2484 12.045C61.4451 12.6105 61.6017 13.189 61.7169 13.7763C61.7306 13.861 61.7529 13.9741 61.7814 14.1141C61.8099 14.2542 61.8273 14.3501 61.8347 14.3992C61.8422 14.4484 61.8558 14.5221 61.8769 14.6105C61.8868 14.6738 61.9087 14.7347 61.9413 14.7899C61.9624 14.8182 61.9909 14.86 62.0256 14.9128C62.0522 14.9622 62.0964 14.9999 62.1496 15.0185C62.2048 15.0346 62.2584 15.056 62.3095 15.0824C62.3801 15.1131 62.4569 15.1274 62.5339 15.1241C62.6256 15.1241 62.7248 15.1241 62.8314 15.134C62.938 15.1438 63.062 15.145 63.2033 15.145V15.6513H57.6037V15.145C58.2988 15.145 58.7248 15.0713 58.8818 14.9239C59.0389 14.7764 59.1169 14.3927 59.1161 13.7726C59.1147 12.445 58.6899 11.1518 57.9025 10.0779C57.0934 8.93762 56.0426 8.36054 54.75 8.34662V13.7935C54.75 14.414 54.8269 14.7936 54.9843 14.9337C55.1417 15.0738 55.5657 15.145 56.2624 15.145V15.6549ZM54.75 6.85129C55.7004 6.0641 56.95 5.57876 58.4988 5.39528V2.37635C58.4988 1.762 58.4207 1.37619 58.2645 1.23612C58.1083 1.09605 57.6818 1.02478 56.9864 1.02478H56.2624C55.5657 1.02478 55.1397 1.09523 54.9843 1.23612C54.8269 1.37619 54.75 1.75709 54.75 2.37635V6.85129Z" fill="#1E1B1E"/>
<path d="M70.2136 4.63477C71.4842 5.19766 72.5827 6.08256 73.3983 7.2003C74.2851 8.37494 74.7289 9.40582 74.7297 10.2929C74.7297 10.8287 74.5768 11.4373 74.2711 12.1188C73.9653 12.8003 73.4256 13.5183 72.652 14.2727C71.8714 15.0309 70.9288 15.6054 69.8938 15.9536C68.6231 15.3907 67.5247 14.5058 66.7091 13.388C65.8215 12.2134 65.3781 11.1825 65.3789 10.2954C65.3789 9.7605 65.5314 9.15189 65.8363 8.46955C66.1413 7.78721 66.681 7.06923 67.4554 6.31563C68.2363 5.55784 69.1789 4.98343 70.2136 4.63477ZM70.9165 14.6204C71.5264 14.1707 71.931 13.7276 72.1301 13.291C72.3293 12.8544 72.4289 12.2634 72.4289 11.518C72.4253 10.8957 72.291 10.281 72.0347 9.71299C71.8102 9.17886 71.5128 8.67779 71.1508 8.22381C70.8202 7.83062 70.4582 7.40139 70.0649 6.93613C69.7677 6.60489 69.497 6.25118 69.2553 5.87821C68.5876 6.31481 68.1401 6.751 67.9128 7.18678C67.6855 7.62256 67.5719 8.21398 67.5719 8.96103C67.5781 9.60106 67.7312 10.2313 68.0194 10.8041C68.2737 11.3494 68.6079 11.8545 69.0111 12.3031C69.3731 12.6897 69.7496 13.105 70.1405 13.549C70.4437 13.8723 70.7045 14.2323 70.9165 14.6204Z" fill="#1E1B1E"/>
<path d="M81.9719 4.63477C83.2423 5.19801 84.3407 6.08284 85.1566 7.2003C86.0434 8.37494 86.4868 9.40582 86.4868 10.2929C86.4868 10.8287 86.3343 11.4373 86.0294 12.1188C85.7244 12.8003 85.1847 13.5183 84.4104 14.2727C83.6298 15.0309 82.6871 15.6054 81.6521 15.9536C80.4124 15.4187 79.3509 14.5635 78.4674 13.388C77.5839 12.2126 77.1401 11.1817 77.136 10.2954C77.136 9.7605 77.2889 9.15189 77.5947 8.46955C77.9005 7.78721 78.4401 7.06923 79.2137 6.31563C79.9946 5.55784 80.9372 4.98343 81.9719 4.63477ZM82.6748 14.6204C83.2847 14.1707 83.6893 13.7276 83.8885 13.291C84.0876 12.8544 84.1872 12.2634 84.1872 11.518C84.1836 10.8957 84.0493 10.281 83.793 9.71299C83.5685 9.17886 83.2711 8.67779 82.9091 8.22381C82.5785 7.83062 82.2162 7.40139 81.8219 6.93613C81.525 6.60466 81.2544 6.25098 81.0124 5.87821C80.3438 6.31481 79.8963 6.751 79.6699 7.18678C79.4434 7.62256 79.3298 8.21398 79.329 8.96103C79.3346 9.60114 79.4877 10.2315 79.7765 10.8041C80.0304 11.3497 80.3646 11.8549 80.7682 12.3031C81.1302 12.6897 81.5067 13.105 81.8976 13.549C82.2012 13.8722 82.4624 14.2322 82.6748 14.6204Z" fill="#1E1B1E"/>
<path d="M91.9401 15.6548V5.37429C91.5202 5.36602 91.1001 5.38696 90.6831 5.43695C90.4117 5.48021 90.1577 5.59717 89.9492 5.77485C89.7154 5.98218 89.5675 6.26804 89.5339 6.57719C89.4675 7.08103 89.4389 7.58906 89.4484 8.09709H88.9153C88.9185 7.59821 88.8615 7.10074 88.7455 6.61528C88.6767 6.28106 88.562 5.95777 88.4046 5.65443L88.2335 5.38043V4.84595H97.8199V5.37429C97.3513 5.97881 97.117 6.88641 97.117 8.09709H96.605C96.6145 7.58906 96.5859 7.08103 96.5195 6.57719C96.4859 6.26804 96.338 5.98218 96.1042 5.77485C95.8958 5.59717 95.6417 5.48021 95.3703 5.43695C94.9533 5.38696 94.5332 5.36602 94.1133 5.37429V15.6548H91.9401Z" fill="#1E1B1E"/>
<path d="M102.506 14.8318C102.382 14.8318 102.121 15.0357 101.738 15.4461C101.355 15.8565 101.079 16.0605 100.908 16.0605C100.624 16.0605 100.323 15.9339 100.003 15.6808C99.683 15.4277 99.5231 15.1459 99.5231 14.8354C99.5231 14.6954 99.7153 14.4238 100.098 14.0233C100.481 13.6227 100.809 13.4212 101.079 13.4212C101.476 13.4212 102.189 13.7378 103.219 14.371C104.248 15.0042 105.033 15.3212 105.574 15.322C106 15.322 106.366 15.0648 106.671 14.5504C106.976 14.036 107.129 13.3782 107.129 12.5771C107.129 10.7045 106.219 9.76828 104.401 9.76828C103.223 9.76828 102.3 9.53278 101.632 9.06177C100.964 8.59077 100.631 8.00877 100.631 7.31579C100.631 6.31644 100.962 5.62018 101.623 5.22699C102.284 4.83381 103.296 4.63681 104.658 4.63599C106.007 4.63599 107.001 4.93866 107.64 5.544C107.944 5.81598 108.186 6.14842 108.352 6.51958C108.517 6.89074 108.601 7.29227 108.599 7.69791C108.599 7.85273 108.251 7.93014 107.555 7.93014C106.802 7.93014 106.426 7.85273 106.426 7.69791C106.426 6.79686 106.291 6.14565 106.021 5.74428C105.752 5.3429 105.298 5.14262 104.658 5.14344C104.408 5.13302 104.159 5.17766 103.929 5.27412C103.699 5.37058 103.493 5.51647 103.326 5.70127C102.993 6.06988 102.831 6.61911 102.831 7.3379C102.832 7.83385 103.026 8.31012 103.374 8.66736C103.736 9.06136 104.25 9.25837 104.917 9.25837C106.452 9.25837 107.567 9.5295 108.264 10.0718C108.594 10.3138 108.862 10.6308 109.043 10.9961C109.225 11.3614 109.316 11.7645 109.308 12.1716C109.308 13.257 108.96 14.1437 108.264 14.8318C107.568 15.5198 106.631 15.8647 105.452 15.8663C105.012 15.8663 104.508 15.6939 103.94 15.349C103.372 15.0042 102.894 14.8318 102.506 14.8318Z" fill="#1E1B1E"/>
</g>
<defs>
<clipPath id="clip0_161_8346">
<rect width="120" height="60" fill="white"/>
</clipPath>
</defs>
</svg>
