<svg width="36" height="36" viewBox="0 0 36 36" fill="none" xmlns="http://www.w3.org/2000/svg">
<path d="M35.9734 7.75539C35.9734 7.71425 36.0017 7.67421 35.9998 7.63354L25.0139 18.2191L35.9867 28.4665C35.9931 28.3933 35.9734 28.3195 35.9734 28.2447V7.75539Z" fill="#1E1E1B"/>
<path d="M23.3369 19.8481L18.8521 24.1631C18.6252 24.3814 18.3321 24.4909 18.0388 24.4909C17.7516 24.4909 17.4645 24.3861 17.2391 24.1761L12.7665 20.0083L1.72205 30.6539C1.9906 30.7504 2.27885 30.8254 2.58072 30.8254H33.497C33.9453 30.8254 34.3657 30.6888 34.7312 30.4852L23.3369 19.8481Z" fill="#1E1E1B"/>
<path d="M18.0259 21.7026L34.792 5.5519C34.4124 5.32621 33.9706 5.1748 33.497 5.1748H2.58067C1.96396 5.1748 1.39887 5.41426 0.95874 5.77947L18.0259 21.7026Z" fill="#1E1E1B"/>
<path d="M0 8.14893V28.2446C0 28.4753 0.0530217 28.6977 0.110579 28.9103L11.018 18.4067L0 8.14893Z" fill="#1E1E1B"/>
</svg>
